# xmcd
#
# Track frame offsets: 
#        150
#        14845
#        35451
#        50305
#        61545
#        77877
#        93364
#        103822
#        116896
#        133327
#        154800
#
# Disc length: 2246 seconds
#
# Revision: 0
# Processed by: cddbd v1.5.2PL0 Copyright (c) Steve Scherf et al.
# Submitted via: ExactAudioCopy v1.0b4
#
DISCID=9308c40b
DTITLE=Ricky Nye - Gettin' Loose
DYEAR=2016
DGENRE=Blues
TTITLE0=I Will Turn Your Money Green
TTITLE1=Miss Ida Bea
TTITLE2=San Antonio Rose
TTITLE3=For You My Love
TTITLE4=Memphis
TTITLE5=How Long Blues
TTITLE6=Shaggy Rag
TTITLE7=Shave 'Em Dry
TTITLE8=I Miss Your Love
TTITLE9=K.C. Lovin'
TTITLE10=Radiate Them 88's
EXTD=
EXTT0=
EXTT1=
EXTT2=
EXTT3=
EXTT4=
EXTT5=
EXTT6=
EXTT7=
EXTT8=
EXTT9=
EXTT10=
PLAYORDER=
